<svg xmlns="http://www.w3.org/2000/svg" width="27" height="27" viewBox="0 0 27 27" fill="none"> <style> path { fill: black; } @media (prefers-color-scheme: dark) { path { fill: white; } } </style> <path d="M13.7932 0.954102L11.0632 7.87606C10.7143 8.76092 10.5398 9.20334 10.2726 9.57641C10.0357 9.90709 9.7462 10.1966 9.41552 10.4335C9.04245 10.7006 8.60003 10.8751 7.71517 11.2241L0.793213 13.9541L7.71517 16.6841C8.60003 17.0331 9.04245 17.2076 9.41552 17.4747C9.7462 17.7117 10.0357 18.0012 10.2726 18.3318C10.5398 18.7049 10.7143 19.1472 11.0632 20.0322L13.7932 26.9541L16.5232 20.0322C16.8722 19.1472 17.0467 18.7049 17.3138 18.3318C17.5508 18.0012 17.8403 17.7117 18.1709 17.4747C18.544 17.2076 18.9863 17.0331 19.8713 16.6841L26.7932 13.9541L19.8713 11.2241C18.9863 10.8751 18.544 10.7006 18.1709 10.4335C17.8403 10.1966 17.5508 9.90709 17.3138 9.57641C17.0467 9.20334 16.8722 8.76092 16.5232 7.87606L13.7932 0.954102Z" fill="black"/> </svg>